<svg width="128" height="128" viewBox="0 0 128 128" fill="none" xmlns="http://www.w3.org/2000/svg">
  <!-- Simple, transparent Google "G"-style mark (no background) -->
  <g transform="translate(18,18)">
    <path
      d="M46 10a36 36 0 0 1 25.5 10.6l-9.8 9.8A22.2 22.2 0 0 0 46 24c-8.5 0-15.9 4.8-19.6 11.9l-12.2-9.4A36 36 0 0 1 46 10Z"
      fill="#EA4335"
    />
    <path
      d="M82 46c0-3-0.5-5.8-1.3-8.5H46v16.1h19.8c-0.9 4.7-3.6 8.7-7.6 11.4l12.2 9.4C77.5 68.9 82 58.5 82 46Z"
      fill="#4285F4"
    />
    <path
      d="M26.4 55.9A22 22 0 0 1 24 46c0-3.5 0.8-6.8 2.4-9.9l-12.2-9.4A36 36 0 0 0 10 46c0 6.1 1.5 11.8 4.2 16.9l12.2-7Z"
      fill="#FBBC05"
    />
    <path
      d="M46 82c9.8 0 18-3.2 24-8.7l-12.2-9.4c-3.3 2.3-7.6 3.7-11.8 3.7-8.5 0-15.8-4.8-19.5-11.7l-12.2 7A36 36 0 0 0 46 82Z"
      fill="#34A853"
    />
  </g>
</svg>
